<?xml version="1.0" encoding="utf-8"?>
<!-- Generator: Adobe Illustrator 21.0.0, SVG Export Plug-In . SVG Version: 6.00 Build 0)  -->
<svg version="1.1" xmlns="http://www.w3.org/2000/svg" xmlns:xlink="http://www.w3.org/1999/xlink" x="0px" y="0px"
	 viewBox="0 0 1280 640" style="enable-background:new 0 0 1280 640;" xml:space="preserve">
<style type="text/css">
	.st0{fill:#FF4500;}
	.st1{fill:#FFFFFF;}
</style>
<g id="Background">
	<g>
		<rect class="st0" width="1280" height="640"/>
	</g>
</g>
<g id="Wordmark">
	<g>
		<path class="st1" d="M543.4,257.1c0-2.3,1.8-4.3,4.3-4.3h55c28.1,0,51.1,22.8,51.1,50.4c0,28.3-23.1,51.4-50.9,51.4h-24v53.6
			c0,2.3-2.1,4.3-4.3,4.3h-26.9c-2.5,0-4.3-2.1-4.3-4.3V257.1z M600.6,321.3c9.8,0,18-7.8,18-18c0-9.6-8.2-16.9-18-16.9H579v34.9
			H600.6z"/>
		<path class="st1" d="M677.1,257.1c0-2.3,1.8-4.3,4.3-4.3h68.2c27.4,0,49.8,22.1,49.8,49.3c0,21-13.9,37.9-33.8,45.9l31.3,58
			c1.6,3,0,6.6-3.9,6.6h-30.4c-1.8,0-3.2-1.1-3.7-2.1L728.7,350h-15.7v58.2c0,2.3-2.1,4.3-4.3,4.3h-27.2c-2.5,0-4.3-2.1-4.3-4.3
			V257.1z M746.7,321c9.4,0,17.3-8.7,17.3-18.3c0-9.6-8-17.3-17.3-17.3h-33.8V321H746.7z"/>
		<path class="st1" d="M809.5,406.6L880.9,253c0.7-1.4,2.3-2.5,3.9-2.5h2.3c1.6,0,3.2,1.1,3.9,2.5l71.4,153.6c1.4,3-0.5,5.9-3.9,5.9
			h-25.3c-4.1,0-5.9-1.4-8-5.7l-8.2-18h-62.1l-8.2,18.3c-1.1,2.7-3.7,5.5-8.2,5.5h-25.1C809.9,412.6,808.1,409.6,809.5,406.6z
			 M903.3,357.8l-17.3-37.7h-0.2l-17.1,37.7H903.3z"/>
		<path class="st1" d="M942,258.2c-0.9-3.2,0.9-5.4,4.1-5.4h26.3c1.8,0,3.6,1.6,4.1,3.2l19.4,76.3h0.9l34.9-79.2
			c0.7-1.4,2-2.5,3.8-2.5h4.1c2,0,3.4,1.1,3.8,2.5l34.9,79.2h0.9l19.4-76.3c0.5-1.6,2.3-3.2,4.1-3.2h26.3c3.2,0,5,2.3,4.1,5.4
			l-42.5,151.2c-0.5,1.8-2.3,3.2-4.1,3.2h-3.6c-1.6,0-3.2-1.1-3.8-2.5l-41.2-92h-0.7l-41,92c-0.7,1.4-2.3,2.5-3.8,2.5h-3.6
			c-1.8,0-3.6-1.4-4.1-3.2L942,258.2z"/>
	</g>
</g>
<g id="Logo">
	<g>
		<path id="path1948" class="st1" d="M307.3,168.7c-13.5,0.1-26.4,1.2-37.7,3.2c-33.4,5.9-39.5,18.3-39.5,41.1v30.1h79v10h-79h-29.6
			c-23,0-43.1,13.8-49.3,40c-7.3,30.1-7.6,48.9,0,80.3c5.6,23.4,19,40,42,40h27.2v-36.1c0-26.1,22.6-49.1,49.3-49.1h78.9
			c22,0,39.5-18.1,39.5-40.1V213c0-21.4-18.1-37.5-39.5-41.1C334.9,169.6,320.8,168.6,307.3,168.7z M264.6,192.9
			c8.2,0,14.8,6.8,14.8,15.1c0,8.3-6.7,15-14.8,15c-8.2,0-14.8-6.7-14.8-15C249.8,199.7,256.4,192.9,264.6,192.9z"/>
		<path id="path1950" class="st1" d="M397.8,253.1v35.1c0,27.2-23.1,50.1-49.3,50.1h-78.9c-21.6,0-39.5,18.5-39.5,40.1v75.2
			c0,21.4,18.6,34,39.5,40.1c25,7.4,49,8.7,78.9,0c19.9-5.8,39.5-17.3,39.5-40.1v-30.1h-78.9v-10H388h39.5c23,0,31.5-16,39.5-40
			c8.2-24.7,7.9-48.5,0-80.3c-5.7-22.9-16.5-40-39.5-40H397.8z M353.4,443.6c8.2,0,14.8,6.7,14.8,15c0,8.3-6.6,15.1-14.8,15.1
			c-8.2,0-14.8-6.8-14.8-15.1C338.6,450.3,345.3,443.6,353.4,443.6z"/>
		<path class="st1" d="M444.8,128.3c-1.7-15.8-15.9-27.3-31.7-25.5c-9.1,0.9-17.2,6.2-21.8,14.1l-70.6-14.1
			c-4.8-1.1-9.6,1.9-10.7,6.8c0,0.1,0,0.1,0,0.1l-10.6,50c1.8,0,3.6-0.1,5.4-0.1c4.3,0,8.7,0.1,13.1,0.3l8-38.4l61.6,13
			c1.7,15.8,15.9,27.3,31.7,25.5C435.1,158.3,446.6,144.1,444.8,128.3z"/>
	</g>
</g>
</svg>
