<?xml version="1.0" encoding="utf-8"?>
<!-- Generator: Adobe Illustrator 21.0.0, SVG Export Plug-In . SVG Version: 6.00 Build 0)  -->
<svg version="1.1" xmlns="http://www.w3.org/2000/svg" xmlns:xlink="http://www.w3.org/1999/xlink" x="0px" y="0px"
	 viewBox="0 0 200 200" style="enable-background:new 0 0 200 200;" xml:space="preserve">
<style type="text/css">
	.st0{fill:#FF4500;}
	.st1{fill:#FFFFFF;}
</style>
<g id="Background">
	<g>
		<rect y="0" class="st0" width="200" height="200"/>
	</g>
</g>
<g id="Wordmark_x2F_Logo">
	<g>
		<g>
			<path id="path1948" class="st1" d="M99.3,43.7c-3.9,0-7.6,0.4-10.9,0.9C78.7,46.3,77,49.9,77,56.5v8.7h22.9v2.9H77h-8.6
				c-6.6,0-12.5,4-14.3,11.6c-2.1,8.7-2.2,14.1,0,23.2c1.6,6.8,5.5,11.6,12.1,11.6h7.9v-10.4c0-7.5,6.5-14.2,14.3-14.2h22.8
				c6.4,0,11.4-5.2,11.4-11.6V56.5c0-6.2-5.2-10.8-11.4-11.9C107.3,44,103.2,43.7,99.3,43.7z M86.9,50.7c2.4,0,4.3,2,4.3,4.4
				c0,2.4-1.9,4.3-4.3,4.3c-2.4,0-4.3-1.9-4.3-4.3C82.7,52.6,84.6,50.7,86.9,50.7z"/>
			<path id="path1950" class="st1" d="M125.5,68.1v10.1c0,7.9-6.7,14.5-14.3,14.5H88.4c-6.3,0-11.4,5.4-11.4,11.6v21.8
				c0,6.2,5.4,9.8,11.4,11.6c7.2,2.1,14.2,2.5,22.8,0c5.8-1.7,11.4-5,11.4-11.6v-8.7H99.8v-2.9h22.8h11.4c6.6,0,9.1-4.6,11.4-11.6
				c2.4-7.2,2.3-14,0-23.2c-1.6-6.6-4.8-11.6-11.4-11.6H125.5z M112.7,123.2c2.4,0,4.3,1.9,4.3,4.3c0,2.4-1.9,4.4-4.3,4.4
				c-2.4,0-4.3-2-4.3-4.4C108.4,125.1,110.3,123.2,112.7,123.2z"/>
			<path class="st1" d="M139.1,32c-0.5-4.6-4.6-7.9-9.2-7.4c-2.6,0.3-5,1.8-6.3,4.1l-20.4-4.1c-1.4-0.3-2.8,0.6-3.1,2c0,0,0,0,0,0
				l-3.1,14.5c0.5,0,1,0,1.5,0c1.3,0,2.5,0,3.8,0.1l2.3-11.1l17.8,3.7c0.5,4.6,4.6,7.9,9.2,7.4C136.3,40.7,139.6,36.6,139.1,32z"/>
		</g>
		<g>
			<path class="st1" d="M52.5,150.4c0-0.4,0.3-0.7,0.7-0.7h8.9c4.5,0,8.2,3.7,8.2,8.1c0,4.6-3.7,8.3-8.2,8.3h-3.9v8.6
				c0,0.4-0.3,0.7-0.7,0.7h-4.3c-0.4,0-0.7-0.3-0.7-0.7V150.4z M61.7,160.7c1.6,0,2.9-1.2,2.9-2.9c0-1.5-1.3-2.7-2.9-2.7h-3.5v5.6
				H61.7z"/>
			<path class="st1" d="M74,150.4c0-0.4,0.3-0.7,0.7-0.7h11c4.4,0,8,3.6,8,7.9c0,3.4-2.2,6.1-5.4,7.4l5,9.3c0.3,0.5,0,1.1-0.6,1.1
				h-4.9c-0.3,0-0.5-0.2-0.6-0.3l-4.9-9.7h-2.5v9.4c0,0.4-0.3,0.7-0.7,0.7h-4.4c-0.4,0-0.7-0.3-0.7-0.7V150.4z M85.3,160.7
				c1.5,0,2.8-1.4,2.8-2.9c0-1.5-1.3-2.8-2.8-2.8h-5.4v5.7H85.3z"/>
			<path class="st1" d="M95.4,174.5l11.5-24.7c0.1-0.2,0.4-0.4,0.6-0.4h0.4c0.3,0,0.5,0.2,0.6,0.4l11.5,24.7c0.2,0.5-0.1,1-0.6,1
				h-4.1c-0.7,0-1-0.2-1.3-0.9l-1.3-2.9h-10l-1.3,2.9c-0.2,0.4-0.6,0.9-1.3,0.9h-4C95.4,175.5,95.1,175,95.4,174.5z M110.5,166.6
				l-2.8-6.1h0l-2.8,6.1H110.5z"/>
			<path class="st1" d="M116.7,150.6c-0.1-0.5,0.1-0.9,0.7-0.9h4.2c0.3,0,0.6,0.3,0.7,0.5l3.1,12.3h0.1l5.6-12.8
				c0.1-0.2,0.3-0.4,0.6-0.4h0.7c0.3,0,0.5,0.2,0.6,0.4l5.6,12.8h0.1l3.1-12.3c0.1-0.3,0.4-0.5,0.7-0.5h4.2c0.5,0,0.8,0.4,0.7,0.9
				l-6.9,24.4c-0.1,0.3-0.4,0.5-0.7,0.5h-0.6c-0.3,0-0.5-0.2-0.6-0.4l-6.6-14.8H132l-6.6,14.8c-0.1,0.2-0.4,0.4-0.6,0.4h-0.6
				c-0.3,0-0.6-0.2-0.7-0.5L116.7,150.6z"/>
		</g>
	</g>
</g>
</svg>
